# xmcd
#
# Track frame offsets: 
#        150
#        10354
#        19767
#        30135
#        44204
#        57025
#        70853
#        84678
#        96324
#        113921
#        146083
#        161260
#        189416
#        200062
#        209711
#        227128
#        238977
#        248044
#        257124
#        268110
#        277864
#        289526
#
# Disc length: 4017 seconds
#
# Revision: 3
# Processed by: cddbd v1.5.2PL0 Copyright (c) Steve Scherf et al.
# Submitted via: ExactAudioCopy v1.1
#
DISCID=450faf16
DTITLE=Buddy Guy - The Complete Chess Studio Recordings Disc 1
DYEAR=1900
DGENRE=Blues
TTITLE0=First Time I Met The Blues (mono)
TTITLE1=Slop Around (mono)
TTITLE2=I Got My Eyes On You (mono)
TTITLE3=Broken Hearted Blues (mono)
TTITLE4=Let Me Love You Baby (mono)
TTITLE5=I Got A Strange Feeling (stereo)
TTITLE6=Gully Hully (mono)
TTITLE7=Ten Years Ago (stereo)
TTITLE8=Watch Yourself (stereo)
TTITLE9=Stone Crazy (stereo)
TTITLE10=Skippin' (mono)
TTITLE11=I Found A True Love (stereo)
TTITLE12=Hard But It's Fair (mono)
TTITLE13=Baby (Baby, Baby, Baby) (mono)
TTITLE14=When My Left Eye Jumps (stereo)
TTITLE15=That's It (mono)
TTITLE16=The Treasure Untold (mono)
TTITLE17=American Bandstand (mono)
TTITLE18=No Lie (stereo)
TTITLE19=$100 Bill (mono)
TTITLE20=My Love Is Real (mono)
TTITLE21=Buddy's Boogie (mono)
EXTD=
EXTT0=
EXTT1=
EXTT2=
EXTT3=
EXTT4=
EXTT5=
EXTT6=
EXTT7=
EXTT8=
EXTT9=
EXTT10=
EXTT11=
EXTT12=
EXTT13=
EXTT14=
EXTT15=
EXTT16=
EXTT17=
EXTT18=
EXTT19=
EXTT20=
EXTT21=
PLAYORDER=
